<svg viewBox="0 0 50 50" xmlns="http://www.w3.org/2000/svg" xmlns:xlink="http://www.w3.org/1999/xlink" width="50.000000" height="50.000000" fill="none">
	<defs>
		<linearGradient id="paint_linear_0" x1="50.3826599" x2="-18.7126999" y1="-9.42982483" y2="22.125288" gradientUnits="userSpaceOnUse">
			<stop stop-color="rgb(2,131,233)" offset="0" stop-opacity="1" />
			<stop stop-color="rgb(252,1,202)" offset="1" stop-opacity="1" />
		</linearGradient>
	</defs>
	<rect id="Icons/Well Documentation" width="50.000000" height="50.000000" x="0.000000" y="0.000000" fill="rgb(0,0,0)" fill-opacity="0" />
	<path id="Vector" d="M34.375 25L15.625 25L15.625 31.25L34.375 31.25L34.375 25ZM43.0664 10.2539L33.5059 0.683594C33.0664 0.244141 32.4707 0 31.8457 0L31.25 0L31.25 12.5L43.75 12.5L43.75 11.9043C43.75 11.2891 43.5059 10.6934 43.0664 10.2539ZM28.125 13.2812L28.125 0L8.59375 0C7.29492 0 6.25 1.04492 6.25 2.34375L6.25 47.6562C6.25 48.9551 7.29492 50 8.59375 50L41.4062 50C42.7051 50 43.75 48.9551 43.75 47.6562L43.75 15.625L30.4688 15.625C29.1797 15.625 28.125 14.5703 28.125 13.2812ZM12.5 7.03125C12.5 6.59961 12.8496 6.25 13.2812 6.25L21.0938 6.25C21.5254 6.25 21.875 6.59961 21.875 7.03125L21.875 8.59375C21.875 9.02539 21.5254 9.375 21.0938 9.375L13.2812 9.375C12.8496 9.375 12.5 9.02539 12.5 8.59375L12.5 7.03125ZM12.5 13.2812C12.5 12.8496 12.8496 12.5 13.2812 12.5L21.0938 12.5C21.5254 12.5 21.875 12.8496 21.875 13.2812L21.875 14.8438C21.875 15.2754 21.5254 15.625 21.0938 15.625L13.2812 15.625C12.8496 15.625 12.5 15.2754 12.5 14.8438L12.5 13.2812ZM37.5 42.9688C37.5 43.4004 37.1504 43.75 36.7188 43.75L28.9062 43.75C28.4746 43.75 28.125 43.4004 28.125 42.9688L28.125 41.4062C28.125 40.9746 28.4746 40.625 28.9062 40.625L36.7188 40.625C37.1504 40.625 37.5 40.9746 37.5 41.4062L37.5 42.9688ZM37.5 23.4375L37.5 32.8125C37.5 33.6758 36.8008 34.375 35.9375 34.375L14.0625 34.375C13.1992 34.375 12.5 33.6758 12.5 32.8125L12.5 23.4375C12.5 22.5742 13.1992 21.875 14.0625 21.875L35.9375 21.875C36.8008 21.875 37.5 22.5742 37.5 23.4375Z" fill="url(#paint_linear_0)" fill-rule="nonzero" />
</svg>
