<svg viewBox="0 0 174 70" xmlns="http://www.w3.org/2000/svg" xmlns:xlink="http://www.w3.org/1999/xlink" width="174.000000" height="70.000000" fill="none">
	<defs>
		<linearGradient id="paint_linear_0" x1="30.7936935" x2="13.2614622" y1="25.5567131" y2="33.2108612" gradientUnits="userSpaceOnUse">
			<stop stop-color="rgb(2,131,233)" offset="0" stop-opacity="1" />
			<stop stop-color="rgb(252,1,202)" offset="1" stop-opacity="1" />
		</linearGradient>
		<linearGradient id="paint_linear_1" x1="66.9838867" x2="-17.8589172" y1="-1.61587906" y2="49.2048492" gradientUnits="userSpaceOnUse">
			<stop stop-color="rgb(2,131,233)" offset="0" stop-opacity="1" />
			<stop stop-color="rgb(252,1,202)" offset="1" stop-opacity="1" />
		</linearGradient>
	</defs>
	<rect id="Digi Sell Logo 1" width="174.000000" height="70.000000" x="0.000000" y="0.000000" fill="rgb(255,255,255)" fill-opacity="0" />
	<g id="Icon">
		<g id="Group">
			<path id="Vector" d="M25.8409 28.7225C24.8783 28.2558 23.8935 28.0225 22.8717 28.0225L19.762 28.0225L19.762 41.0967L22.4127 41.0967C23.738 41.0967 24.9005 40.8483 25.9149 40.344C26.9219 39.8472 27.7141 39.102 28.2843 38.1311C28.8544 37.1526 29.1357 35.9859 29.1357 34.6235C29.1357 33.1407 28.8248 31.8988 28.2028 30.9053C27.5883 29.9192 26.8034 29.1891 25.8409 28.7225Z" fill="url(#paint_linear_0)" fill-rule="nonzero" />
		</g>
		<g id="Group">
			<path id="Vector" d="M31.9419 8.30957C17.6443 8.30957 6.05664 20.0891 6.05664 34.6236C6.05664 49.158 17.6443 60.9375 31.9419 60.9375C46.2395 60.9375 57.8272 49.158 57.8272 34.6236C57.8272 20.0891 46.2395 8.30957 31.9419 8.30957ZM30.9349 39.659C30.0983 41.0515 28.9728 42.1203 27.5586 42.873C26.1518 43.6257 24.6117 44.002 22.9457 44.002L16.7854 44.002L16.7854 25.1472L22.0572 25.1472C24.3822 25.1472 26.3073 25.6139 27.8252 26.5472C29.343 27.4805 30.4537 28.6773 31.1497 30.1451C31.8457 31.6128 32.1937 33.1709 32.1937 34.8343C32.1937 36.6633 31.7716 38.2666 30.9349 39.659ZM46.358 41.5332C45.8619 42.3461 45.1511 42.9934 44.2182 43.4752C43.2852 43.9569 42.182 44.1977 40.9085 44.1977C39.7904 44.1977 38.6872 44.0171 37.5988 43.6633C36.5103 43.3096 35.5478 42.8203 34.6963 42.2031L36.0217 39.8472C36.651 40.3289 37.3914 40.7354 38.2503 41.0515C39.1092 41.3676 39.9015 41.5332 40.6345 41.5332C41.5378 41.5332 42.3227 41.3149 43.0039 40.8709C43.6851 40.4343 44.0257 39.7569 44.0257 38.8386C44.0257 38.116 43.7443 37.5063 43.1742 37.0246C42.604 36.5429 41.8118 36.0988 40.79 35.7074C39.7386 35.3085 38.8649 34.9171 38.1689 34.5257C37.4729 34.1343 36.8731 33.5924 36.3771 32.8924C35.8736 32.1924 35.6292 31.3192 35.6292 30.2655C35.6292 28.73 36.1401 27.4881 37.1693 26.5472C38.1985 25.6063 39.5535 25.102 41.2343 25.0343C42.456 25.0343 43.5296 25.1773 44.4551 25.4633C45.3806 25.7494 46.2395 26.1483 47.0392 26.6676L45.9212 28.9709C44.3218 28.1279 42.9076 27.6988 41.6711 27.6988C40.753 27.6988 40.0274 27.9096 39.4943 28.3235C38.9612 28.7375 38.6946 29.3096 38.6946 30.0322C38.6946 30.7397 39.0278 31.3343 39.7016 31.8085C40.3754 32.2827 41.3083 32.7569 42.5152 33.216C43.4333 33.5472 44.2182 33.916 44.8697 34.3451C45.5213 34.7666 46.0618 35.3386 46.4839 36.0687C46.9059 36.7913 47.1206 37.7096 47.1206 38.816C47.091 39.8171 46.8467 40.7278 46.358 41.5332Z" fill="url(#paint_linear_1)" fill-rule="nonzero" />
		</g>
	</g>
	<g id="Digisell">
		<path id="Vector" d="M65.0834 23.3184L71.3104 23.3184C74.0574 23.3184 76.3305 23.8678 78.1223 24.9667C79.9142 26.0657 81.2247 27.4883 82.0466 29.2194C82.8685 30.9506 83.2831 32.7947 83.2831 34.7517C83.2831 36.9119 82.787 38.8162 81.7948 40.4571C80.8027 42.0979 79.4699 43.3624 77.8114 44.2506C76.1454 45.1388 74.3314 45.5829 72.3692 45.5829L65.0834 45.5829L65.0834 23.3184ZM71.7325 42.1581C73.2948 42.1581 74.672 41.8646 75.8714 41.27C77.0635 40.6754 77.9965 39.8098 78.6702 38.6581C79.344 37.5065 79.6772 36.1291 79.6772 34.5184C79.6772 32.7646 79.3144 31.3044 78.5814 30.1302C77.8484 28.956 76.9154 28.0979 75.7826 27.5485C74.6497 26.999 73.4799 26.7205 72.2804 26.7205L68.6079 26.7205L68.6079 42.1581L71.7325 42.1581Z" fill="rgb(43,43,43)" fill-rule="nonzero" />
		<path id="Vector" d="M87.7331 26.728C88.1329 26.3742 88.5846 26.1936 89.0881 26.1936C89.5694 26.1936 90.0062 26.3742 90.3986 26.728C90.7911 27.0818 90.9836 27.5183 90.9836 28.0302C90.9836 28.542 90.7911 28.971 90.3986 29.3173C90.0062 29.6635 89.5694 29.8366 89.0881 29.8366C88.5846 29.8366 88.1329 29.6635 87.7331 29.3173C87.3333 28.971 87.1334 28.542 87.1334 28.0302C87.1334 27.5183 87.3333 27.0893 87.7331 26.728ZM90.6504 32.6441L90.6504 45.5753L87.2814 45.5753L87.2814 32.6441L90.6504 32.6441Z" fill="rgb(43,43,43)" fill-rule="nonzero" />
		<path id="Vector" d="M109.057 32.6441L109.057 45.6355C109.057 46.8398 108.739 47.9236 108.11 48.8946C107.48 49.8656 106.599 50.6258 105.466 51.1903C104.333 51.7473 103.052 52.0333 101.631 52.0333C100.246 52.0333 99.0912 51.815 98.1731 51.3785C97.2476 50.9419 96.3146 50.3021 95.3743 49.4667L97.3586 47.1107C98.0028 47.7204 98.6544 48.1946 99.3133 48.5333C99.9723 48.872 100.728 49.0376 101.572 49.0376C102.816 49.0376 103.808 48.729 104.548 48.1043C105.289 47.4796 105.674 46.6441 105.688 45.5828L105.688 43.415C105.244 44.1677 104.593 44.7774 103.719 45.2365C102.845 45.6957 101.831 45.9215 100.668 45.9215C99.5059 45.9215 98.4322 45.6204 97.4475 45.0183C96.4627 44.4161 95.6853 43.5882 95.1003 42.5419C94.5154 41.4957 94.2266 40.3215 94.2266 39.0419C94.2266 37.7398 94.5302 36.5505 95.1448 35.4817C95.7593 34.4129 96.5664 33.5774 97.5807 32.9752C98.5951 32.3731 99.6688 32.072 100.816 32.072C101.883 32.072 102.845 32.2602 103.719 32.6365C104.593 33.0129 105.244 33.5097 105.688 34.1193L105.962 32.6516L109.057 32.6516L109.057 32.6441ZM104.2 42.3688C104.911 41.8796 105.407 41.2172 105.688 40.3817L105.688 37.5666C105.407 36.7537 104.904 36.0989 104.185 35.6097C103.467 35.1204 102.623 34.872 101.66 34.872C100.52 34.872 99.5577 35.2559 98.7876 36.0161C98.0176 36.7838 97.6326 37.7548 97.6326 38.9365C97.6326 39.7118 97.8103 40.4118 98.1731 41.0441C98.5359 41.6763 99.0172 42.1731 99.6317 42.5419C100.246 42.9107 100.92 43.0914 101.66 43.0914C102.638 43.1064 103.489 42.858 104.2 42.3688Z" fill="rgb(43,43,43)" fill-rule="nonzero" />
		<path id="Vector" d="M114.144 26.728C114.544 26.3742 114.996 26.1936 115.499 26.1936C115.98 26.1936 116.417 26.3742 116.81 26.728C117.202 27.0818 117.395 27.5183 117.395 28.0302C117.395 28.542 117.202 28.971 116.81 29.3173C116.417 29.6635 115.98 29.8366 115.499 29.8366C114.996 29.8366 114.544 29.6635 114.144 29.3173C113.744 28.971 113.544 28.542 113.544 28.0302C113.537 27.5183 113.737 27.0893 114.144 26.728ZM117.061 32.6441L117.061 45.5753L113.692 45.5753L113.692 32.6441L117.061 32.6441Z" fill="rgb(43,43,43)" fill-rule="nonzero" />
		<path id="Vector" d="M128.849 26.3515C127.768 26.3515 126.909 26.5924 126.28 27.0816C125.65 27.5709 125.332 28.2408 125.332 29.0988C125.332 29.9343 125.724 30.6343 126.517 31.1913C127.309 31.7558 128.419 32.3053 129.841 32.8547C130.922 33.2386 131.848 33.6827 132.625 34.187C133.395 34.6838 134.032 35.3612 134.535 36.2193C135.039 37.0773 135.291 38.1537 135.291 39.4633C135.291 40.6451 135.002 41.7139 134.417 42.6773C133.832 43.6332 132.995 44.401 131.892 44.973C130.789 45.5451 129.486 45.8311 127.983 45.8311C126.657 45.8311 125.354 45.6203 124.073 45.2064C122.792 44.7924 121.645 44.2128 120.645 43.4752L122.207 40.6902C122.948 41.2623 123.829 41.7365 124.836 42.1128C125.85 42.4892 126.783 42.6773 127.649 42.6773C128.716 42.6773 129.641 42.4139 130.448 41.8945C131.248 41.3752 131.648 40.5773 131.648 39.4935C131.648 38.6354 131.314 37.9203 130.641 37.3558C129.967 36.7838 129.034 36.2644 127.827 35.7978C126.583 35.3311 125.554 34.8644 124.732 34.4053C123.91 33.9461 123.199 33.3064 122.614 32.4784C122.022 31.6504 121.726 30.6193 121.726 29.3773C121.726 27.5633 122.333 26.1031 123.547 24.9892C124.762 23.8752 126.361 23.2806 128.345 23.1978C129.789 23.1978 131.055 23.3633 132.151 23.7021C133.247 24.0408 134.261 24.515 135.202 25.1246L133.869 27.8494C131.988 26.8483 130.315 26.3515 128.849 26.3515Z" fill="rgb(43,43,43)" fill-rule="nonzero" />
		<path id="Vector" d="M148.189 41.9698L149.721 44.5064C149.04 44.9354 148.307 45.2741 147.522 45.53C146.737 45.786 145.99 45.9139 145.264 45.9139C143.798 45.9139 142.532 45.6204 141.458 45.0257C140.385 44.4311 139.563 43.6182 138.993 42.5795C138.423 41.5408 138.134 40.344 138.134 39.0042C138.134 37.7397 138.452 36.5806 139.096 35.5193C139.74 34.458 140.607 33.6225 141.71 32.9978C142.813 32.3731 144.013 32.0645 145.316 32.0645C147.041 32.0645 148.477 32.5763 149.618 33.6075C150.758 34.6386 151.521 36.0913 151.906 37.9655L142.102 41.33C142.443 41.8569 142.895 42.2709 143.457 42.5494C144.02 42.8354 144.642 42.9784 145.323 42.9784C146.271 42.9784 147.226 42.6472 148.189 41.9698ZM142.458 35.8881C141.784 36.6408 141.451 37.6193 141.451 38.8236C141.451 39.0494 141.458 39.2225 141.48 39.3429L148.159 36.9268C147.9 36.2946 147.515 35.7752 147.019 35.3688C146.515 34.9623 145.864 34.7591 145.064 34.7591C143.998 34.7591 143.132 35.1354 142.458 35.8881Z" fill="rgb(43,43,43)" fill-rule="nonzero" />
		<path id="Vector" d="M158.592 21.7302L158.592 45.5829L155.223 45.5829L155.223 21.7302L158.592 21.7302Z" fill="rgb(43,43,43)" fill-rule="nonzero" />
		<path id="Vector" d="M166.596 21.7302L166.596 45.5829L163.227 45.5829L163.227 21.7302L166.596 21.7302Z" fill="rgb(43,43,43)" fill-rule="nonzero" />
	</g>
</svg>
