<svg viewBox="0 0 40 40" xmlns="http://www.w3.org/2000/svg" xmlns:xlink="http://www.w3.org/1999/xlink" width="40.000000" height="40.000000" fill="none">
	<rect id="Icons/double-quotes-l" width="40.000000" height="40.000000" x="0.000000" y="0.000000" fill="rgb(255,255,255)" fill-opacity="0" transform="matrix(-1,-8.74228e-08,8.74228e-08,-1,40,40)" />
	<g id="Group">
		<path id="Vector" d="M0 0L40 0L40 40L0 40L0 0Z" fill-rule="nonzero" transform="matrix(-1,-8.74228e-08,8.74228e-08,-1,40,40)" />
		<path id="Vector" d="M2.63833 20.83C0.921667 19.0067 0 16.9617 0 13.6467C0 7.81333 4.095 2.585 10.05 0L11.5383 2.29667C5.98 5.30333 4.89333 9.205 4.46 11.665C5.355 11.2017 6.52667 11.04 7.675 11.1467C10.6817 11.425 13.0517 13.8933 13.0517 16.9617C13.0517 18.5088 12.4371 19.9925 11.3431 21.0865C10.2492 22.1804 8.76543 22.795 7.21833 22.795C5.43 22.795 3.72 21.9783 2.63833 20.83ZM19.305 20.83C17.5883 19.0067 16.6667 16.9617 16.6667 13.6467C16.6667 7.81333 20.7617 2.585 26.7167 0L28.205 2.29667C22.6467 5.30333 21.56 9.205 21.1267 11.665C22.0217 11.2017 23.1933 11.04 24.3417 11.1467C27.3483 11.425 29.7183 13.8933 29.7183 16.9617C29.7183 18.5088 29.1037 19.9925 28.0098 21.0865C26.9158 22.1804 25.4321 22.795 23.885 22.795C22.0967 22.795 20.3867 21.9783 19.305 20.83Z" fill="rgb(24,25,26)" fill-rule="nonzero" transform="matrix(-1,-8.74228e-08,8.74228e-08,-1,35,31.9617)" />
	</g>
</svg>
