<svg viewBox="0 0 50 50" xmlns="http://www.w3.org/2000/svg" xmlns:xlink="http://www.w3.org/1999/xlink" width="50.000000" height="50.000000" fill="none">
	<rect id="Icons/Regular Update" width="50.000000" height="50.000000" x="0.000000" y="0.000000" fill="rgb(0,0,0)" fill-opacity="0" />
	<path id="Vector" d="M18.0245 25.5749C18.3401 26.9418 16.8406 27.9807 15.6741 27.2515L11.696 24.7656L6.72848 32.7151C5.43122 34.7907 6.93063 37.4985 9.37712 37.4985L14.4541 37.4985C15.1012 37.4985 15.6259 38.0232 15.6259 38.6703L15.6259 42.5766C15.6259 43.2238 15.1012 43.7485 14.4541 43.7485L9.38717 43.7485C2.03034 43.7485 -2.45872 35.6383 1.43718 29.4047L6.40026 21.4567L2.42321 18.9715C1.24343 18.2345 1.54762 16.4363 2.89968 16.124L13.665 13.6387C14.5059 13.4446 15.3448 13.9689 15.5389 14.8096L18.0245 25.5749ZM27.6496 7.71213L31.6817 14.1649L27.7032 16.6509C26.5263 17.3861 26.8243 19.1854 28.1797 19.4984L38.945 21.9837C39.7919 22.1789 40.6261 21.648 40.8189 20.8128L43.3043 10.0475C43.6165 8.69553 42.1334 7.63352 40.9539 8.37092L36.9805 10.8537L32.9509 4.40042C29.2868 -1.46218 20.7235 -1.47566 17.0509 4.40042L15.2967 7.2096C14.954 7.75842 15.121 8.48118 15.6698 8.82415L18.9822 10.894C19.531 11.2369 20.2541 11.07 20.597 10.5212L22.351 7.71428C23.5924 5.72786 26.45 5.7928 27.6496 7.71213ZM48.5642 29.4047L45.8772 25.1015C45.5343 24.5524 44.8112 24.3853 44.2622 24.7283L40.9554 26.7947C40.4066 27.1376 40.2396 27.8606 40.5826 28.4095L43.2744 32.7173C44.569 34.7887 43.0735 37.4986 40.6244 37.4986L31.2509 37.4986L31.2509 32.8129C31.2509 31.4249 29.5672 30.7247 28.5837 31.7081L20.7712 39.5188C20.1609 40.1289 20.1609 41.1183 20.7712 41.7284L28.5837 49.5399C29.5604 50.5168 31.2509 49.8324 31.2509 48.4349L31.2509 43.7485L40.6142 43.7485C47.9652 43.7485 52.4633 35.6433 48.5642 29.4047Z" fill="rgb(255,255,255)" fill-rule="nonzero" />
</svg>
